HIERARCHY
ROOT Hips
{
	OFFSET 0.00000 0.00000 0.00000
	CHANNELS 6 Xposition Yposition Zposition Zrotation Yrotation Xrotation 
	JOINT LHipJoint
	{
		OFFSET 0 0 0
		CHANNELS 3 Zrotation Yrotation Xrotation
		JOINT LeftUpLeg
		{
			OFFSET 1.86795 -1.59681 0.65681
			CHANNELS 3 Zrotation Yrotation Xrotation
			JOINT LeftLeg
			{
				OFFSET 2.30491 -6.33268 0.00000
				CHANNELS 3 Zrotation Yrotation Xrotation
				JOINT LeftFoot
				{
					OFFSET 2.46780 -6.78022 0.00000
					CHANNELS 3 Zrotation Yrotation Xrotation
					JOINT LeftToeBase
					{
						OFFSET 0.07897 -0.21698 1.59652
						CHANNELS 3 Zrotation Yrotation Xrotation
						End Site
						{
							OFFSET 0.00000 -0.00000 0.82310
						}
					}
				}
			}
		}
	}
	JOINT RHipJoint
	{
		OFFSET 0 0 0
		CHANNELS 3 Zrotation Yrotation Xrotation
		JOINT RightUpLeg
		{
			OFFSET -1.93650 -1.59681 0.65681
			CHANNELS 3 Zrotation Yrotation Xrotation
			JOINT RightLeg
			{
				OFFSET -2.29410 -6.30299 0.00000
				CHANNELS 3 Zrotation Yrotation Xrotation
				JOINT RightFoot
				{
					OFFSET -2.48738 -6.83403 0.00000
					CHANNELS 3 Zrotation Yrotation Xrotation
					JOINT RightToeBase
					{
						OFFSET -0.08699 -0.23899 1.89395
						CHANNELS 3 Zrotation Yrotation Xrotation
						End Site
						{
							OFFSET -0.00000 -0.00000 0.96904
						}
					}
				}
			}
		}
	}
	JOINT LowerBack
	{
		OFFSET 0 0 0
		CHANNELS 3 Zrotation Yrotation Xrotation
		JOINT Spine
		{
			OFFSET 0.03629 1.99740 -0.07548
			CHANNELS 3 Zrotation Yrotation Xrotation
			JOINT Spine1
			{
				OFFSET 0.03970 1.94298 0.17218
				CHANNELS 3 Zrotation Yrotation Xrotation
				JOINT Neck
				{
					OFFSET 0 0 0
					CHANNELS 3 Zrotation Yrotation Xrotation
					JOINT Neck1
					{
						OFFSET -0.05054 1.79469 0.04241
						CHANNELS 3 Zrotation Yrotation Xrotation
						JOINT Head
						{
							OFFSET 0.05195 1.78475 -0.22133
							CHANNELS 3 Zrotation Yrotation Xrotation
							End Site
							{
								OFFSET 0.02420 1.80711 -0.07950
							}
						}
					}
				}
				JOINT LeftShoulder
				{
					OFFSET 0 0 0
					CHANNELS 3 Zrotation Yrotation Xrotation
					JOINT LeftArm
					{
						OFFSET 2.92134 1.19850 0.36056
						CHANNELS 3 Zrotation Yrotation Xrotation
						JOINT LeftForeArm
						{
							OFFSET 4.84137 -0.00000 0.00000
							CHANNELS 3 Zrotation Yrotation Xrotation
							JOINT LeftHand
							{
								OFFSET 3.24520 -0.00000 -0.00000
								CHANNELS 3 Zrotation Yrotation Xrotation
								JOINT LeftFingerBase
								{
									OFFSET 0 0 0
									CHANNELS 3 Zrotation Yrotation Xrotation
									JOINT LeftHandIndex1
									{
										OFFSET 0.52122 -0.00000 0.00000
										CHANNELS 3 Zrotation Yrotation Xrotation
										End Site
										{
											OFFSET 0.42022 -0.00000 0.00000
										}
									}
								}
								JOINT LThumb
								{
									OFFSET 0 0 0
									CHANNELS 3 Zrotation Yrotation Xrotation
									End Site
									{
										OFFSET 0.42664 -0.00000 0.42664
									}
								}
							}
						}
					}
				}
				JOINT RightShoulder
				{
					OFFSET 0 0 0
					CHANNELS 3 Zrotation Yrotation Xrotation
					JOINT RightArm
					{
						OFFSET -2.84327 1.20795 0.50191
						CHANNELS 3 Zrotation Yrotation Xrotation
						JOINT RightForeArm
						{
							OFFSET -4.72284 -0.00000 0.00000
							CHANNELS 3 Zrotation Yrotation Xrotation
							JOINT RightHand
							{
								OFFSET -3.23459 -0.00000 0.00000
								CHANNELS 3 Zrotation Yrotation Xrotation
								JOINT RightFingerBase
								{
									OFFSET 0 0 0
									CHANNELS 3 Zrotation Yrotation Xrotation
									JOINT RightHandIndex1
									{
										OFFSET -0.30742 -0.00000 0.00000
										CHANNELS 3 Zrotation Yrotation Xrotation
										End Site
										{
											OFFSET -0.24785 -0.00000 0.00000
										}
									}
								}
								JOINT RThumb
								{
									OFFSET 0 0 0
									CHANNELS 3 Zrotation Yrotation Xrotation
									End Site
									{
										OFFSET -0.25163 -0.00000 0.25163
									}
								}
							}
						}
					}
				}
			}
		}
	}
}
MOTION
Frames: 16
Frame Time: 0.0243902
0.00 0.00 0.00 3.0858 -34.3669 5.7573 0.0000 0.0000 0.0000 -25.1275 -18.0309 -24.6645 8.4171 16.4176 54.0515 2.7774 7.0798 -34.5625 0.1364 2.3808 6.5593 0.0000 0.0000 0.0000 15.9307 21.5781 -35.8811 -9.7800 -17.2843 58.7507 -1.5773 -7.4514 -27.4337 -0.0734 1.7484 -4.8107 1.4180 0.4888 -3.8668 -0.9483 0.5632 -5.2255 -1.7639 0.1931 -3.1887 1.0331 9.0760 11.9367 17.6192 10.9299 12.1158 4.7764 5.5216 0.6587 -0.0000 0.0000 0.0000 -89.5410 -15.1018 65.8744 137.5020 -49.4821 -99.6817 -0.0000 -0.0000 48.6955 -73.0052 38.2450 -63.7231 -7.1250 0.0000 -0.0000 -93.9620 48.5459 -33.6915 -0.0000 0.0000 0.0000 87.5046 29.7431 44.2756 -143.1914 46.0613 -103.8979 0.0000 0.0000 0.3043 60.1502 -3.6754 -6.3738 7.1250 -0.0000 -0.0000 43.0954 -3.8401 65.1168
0.00 0.00 0.00 3.3944 -34.1570 4.7436 0.0000 0.0000 0.0000 -25.6290 -17.5482 -23.8549 8.3901 16.3988 53.9559 2.8058 6.8400 -34.5928 0.1098 2.1370 5.8845 0.0000 0.0000 0.0000 15.9917 21.3083 -35.0138 -9.8095 -17.3014 58.8499 -1.4796 -7.9296 -27.0564 -0.0784 1.8066 -4.9715 -0.0072 0.1020 -4.1655 -0.5266 0.1252 -2.3026 -0.5304 0.0541 -0.0257 -0.6109 6.3113 12.9595 12.4859 7.7551 8.5456 3.8591 3.6893 -0.0558 0.0000 0.0000 0.0000 -75.6475 -7.2235 61.1060 138.8935 -48.7119 -100.7334 -0.0000 -0.0000 11.9965 -76.6065 34.4560 -67.1755 -7.1250 0.0000 -0.0000 -87.0435 47.6809 -20.7292 0.0000 0.0000 0.0000 68.7765 12.2753 46.9963 -143.6108 45.7790 -104.1992 0.0000 -0.0000 -33.4251 52.0767 -5.3752 -6.8559 7.1250 -0.0000 -0.0000 45.4701 -20.2539 44.7196
0.00 0.00 0.00 3.1730 -33.6885 4.5934 0.0000 0.0000 0.0000 -25.4521 -17.5292 -23.7192 8.4586 16.4464 54.1982 2.7544 6.8706 -34.3289 0.0771 1.7917 4.9302 0.0000 0.0000 0.0000 16.3176 20.9369 -34.7839 -9.8760 -17.3395 59.0731 -1.5940 -7.4155 -27.5278 -0.0344 1.1966 -3.2898 0.3227 -0.1034 -3.9338 -0.6341 -0.1431 -0.5430 -0.8389 -0.0692 1.6453 -1.1472 5.5121 12.5743 10.4685 6.9491 5.8281 3.2688 3.2346 -0.7560 -0.0000 0.0000 0.0000 -59.6488 -0.6777 63.5906 129.0511 -53.3711 -93.0662 -0.0000 0.0000 -2.9088 -81.0094 31.2772 -73.0517 -7.1250 0.0000 -0.0000 -80.2904 46.4283 -8.9112 -0.0000 0.0000 0.0000 50.6886 3.4156 59.8679 -129.3593 53.2507 -93.3133 0.0000 -0.0000 -54.9330 47.5767 -4.0980 -4.4713 7.1250 -0.0000 -0.0000 45.5738 -23.1941 38.5854
0.00 0.00 0.00 3.4080 -33.7059 4.0693 0.0000 0.0000 0.0000 -25.7650 -17.3321 -23.4411 8.4892 16.4675 54.3062 2.7479 6.9302 -34.3239 0.0768 1.7879 4.9199 0.0000 0.0000 0.0000 16.1928 20.9149 -34.5638 -9.9793 -17.3982 59.4192 -1.7105 -6.5741 -27.8157 -0.0094 0.6252 -1.7181 -0.2158 -0.1751 -3.6425 -0.4499 -0.2124 0.5661 -0.3534 -0.1059 2.6225 -1.4951 4.9818 13.0287 9.1165 6.3630 4.0566 2.8820 2.9093 -1.3341 0.0000 -0.0000 0.0000 -49.7065 3.5447 62.7174 118.3847 -56.7252 -84.3116 -0.0000 0.0000 -4.6130 -88.1206 19.8157 -84.4713 -7.1250 0.0000 -0.0000 -52.8650 31.6926 32.6485 0.0000 -0.0000 0.0000 37.5225 0.5627 72.6044 -112.2916 58.0365 -79.1778 0.0000 -0.0000 -65.5235 50.6791 -1.3783 -1.6820 7.1250 -0.0000 -0.0000 44.1505 -17.0198 47.3794
0.00 0.00 0.00 3.2188 -33.7906 3.8910 0.0000 0.0000 0.0000 -25.6416 -17.2776 -23.3624 8.5812 16.5305 54.6303 2.7278 7.2531 -34.3837 0.0486 1.4233 3.9143 0.0000 0.0000 0.0000 16.4892 20.9331 -34.2901 -9.9652 -17.3902 59.3719 -1.6156 -7.2306 -27.5615 -0.0393 1.2797 -3.5188 -0.3507 -0.2719 -3.1642 -0.1208 -0.3440 1.4561 0.0520 -0.1778 3.2722 -2.0886 4.8574 13.1333 8.2764 6.2110 2.7691 2.7073 2.8225 -1.7581 -0.0000 -0.0000 0.0000 -42.1961 6.8794 62.6508 105.0932 -59.1215 -73.0325 -0.0000 0.0000 -11.9198 -82.7312 27.5758 -74.5954 -7.1250 0.0000 -0.0000 -68.7643 42.9200 8.7787 -0.0000 -0.0000 0.0000 28.7443 -1.0656 81.2684 -93.3571 59.9574 -62.9069 0.0000 -0.0000 -63.2359 61.2663 -2.5345 -4.6114 7.1250 -0.0000 -0.0000 43.0369 0.7453 69.6946
0.00 0.00 0.00 2.9652 -33.8397 3.9416 0.0000 0.0000 0.0000 -25.3313 -17.3751 -23.5958 8.6981 16.6095 55.0400 2.8328 6.7373 -34.6865 0.1185 2.2190 6.1114 0.0000 0.0000 0.0000 16.7485 20.9840 -34.3569 -9.9764 -17.3966 59.4095 -1.5534 -7.5265 -27.3147 -0.0268 1.0574 -2.9066 -0.3171 -0.3028 -2.7769 0.0492 -0.3950 2.2684 0.2042 -0.2074 3.8943 -1.8174 4.5734 13.0300 6.6268 5.9195 1.5598 2.1201 2.7116 -2.0424 0.0000 0.0000 0.0000 -34.5458 9.5701 62.4878 86.5721 -59.9556 -57.0318 -0.0000 0.0000 -11.5693 -84.3539 23.4626 -76.0550 -7.1250 0.0000 -0.0000 -57.4266 35.9360 26.3873 0.0000 0.0000 0.0000 22.7161 -3.0942 85.8962 -71.8971 58.7248 -44.3895 0.0000 -0.0000 -57.7452 64.5699 -2.4805 -5.2009 7.1250 -0.0000 -0.0000 43.7635 9.1724 77.8549
0.00 0.00 0.00 2.4211 -33.2569 4.1589 0.0000 0.0000 0.0000 -24.8164 -17.9897 -23.5736 8.7526 16.6458 55.2305 2.7369 7.3069 -34.4614 0.0659 1.6565 4.5574 0.0000 0.0000 0.0000 17.2651 20.3456 -34.3825 -9.8858 -17.3452 59.1061 -1.5710 -7.3663 -27.3350 -0.0584 1.5595 -4.2899 0.1770 -0.3663 -1.9540 0.2835 -0.5200 3.4428 0.1620 -0.2624 4.6462 -2.6799 4.2140 13.7284 6.0568 5.4560 -1.3188 2.1053 2.4580 -3.1459 0.0000 -0.0000 0.0000 -23.5285 12.5734 66.1475 59.1928 -56.0910 -33.6703 -0.0000 0.0000 -8.2316 -85.1288 25.2075 -78.6843 -7.1250 0.0000 -0.0000 -63.1735 40.0739 17.3344 0.0000 -0.0000 0.0000 16.4088 -7.9838 85.8355 -47.7031 52.0261 -24.3515 0.0000 -0.0000 -43.8025 68.0607 -3.3844 -8.3380 7.1250 -0.0000 -0.0000 45.0762 15.9008 83.7721
0.00 0.00 0.00 2.3515 -32.9928 4.4629 0.0000 0.0000 0.0000 -24.3272 -18.0738 -24.3902 8.7117 16.6186 55.0878 2.6792 6.4974 -33.7216 0.0998 2.0370 5.6080 0.0000 0.0000 0.0000 17.1964 20.5404 -34.8189 -9.7594 -17.2723 58.6811 -1.4484 -7.6331 -26.6335 -0.0486 1.4224 -3.9118 -0.1456 -0.4597 -0.3337 0.5412 -0.6605 4.7465 0.6086 -0.3588 5.0938 -2.9204 3.5887 12.3475 4.6092 4.6070 -2.8355 1.7379 2.1164 -3.3234 0.0000 -0.0000 0.0000 -14.7267 16.6430 62.7331 29.8120 -40.7317 -11.2867 -0.0000 -0.0000 7.8250 -81.5931 26.7775 -71.8385 -7.1250 0.0000 -0.0000 -65.2531 41.2551 14.0885 0.0000 -0.0000 0.0000 9.2973 -12.0456 82.5270 -23.3551 34.4748 -7.3383 0.0000 -0.0000 -7.6214 59.1762 -1.8822 -3.1507 7.1250 -0.0000 -0.0000 43.0020 -3.1141 65.5361
0.00 0.00 0.00 2.8951 -30.9759 7.0358 0.0000 0.0000 0.0000 -23.0577 -20.0080 -28.2570 8.2787 16.3205 53.5606 2.3015 5.3747 -30.9604 0.0570 1.5412 4.2394 0.0000 0.0000 0.0000 15.3591 20.5846 -38.3767 -9.2330 -16.9553 56.8925 -1.2064 -8.3145 -25.2946 -0.0221 0.9604 -2.6399 -0.0502 -1.2195 4.1956 0.7963 -1.6748 4.7690 0.8765 -0.8681 2.5779 -4.2704 4.0997 12.8948 1.8278 4.9897 -10.9705 0.8357 2.4809 -5.5754 -0.0000 -0.0000 0.0000 -9.1325 23.4582 25.6972 10.3505 -17.2860 -1.5775 -0.0000 -0.0000 41.2189 -39.5947 60.8844 -35.8519 -7.1250 0.0000 -0.0000 -76.4260 -60.4233 107.6360 -0.0000 -0.0000 0.0000 -8.6642 -15.7774 64.2435 -8.5343 14.4152 -1.0813 0.0000 0.0000 9.5361 15.8916 -2.5978 -0.7393 7.1250 -0.0000 -0.0000 32.5462 -31.0569 13.0615
0.00 0.00 0.00 3.8770 -27.2309 12.2359 0.0000 0.0000 0.0000 -20.2585 -24.1554 -30.3660 6.3239 14.7351 46.2684 1.6450 5.2145 -26.5812 0.0066 0.5251 1.4429 0.0000 0.0000 0.0000 14.1215 21.2196 -40.8443 -7.4098 -15.6675 50.4076 -0.6132 -10.9591 -22.5511 -0.0133 0.7437 -2.0438 0.6530 -0.2784 9.4617 -2.6508 -0.5198 -3.3195 -3.1043 -0.3798 -8.8891 -7.3384 4.1738 13.0067 8.4579 4.7403 0.0911 3.4737 2.0583 -2.4459 0.0000 -0.0000 0.0000 -5.4155 18.7632 -8.8236 12.1859 -20.0829 -2.1657 -0.0000 -0.0000 16.9399 -0.1956 54.4414 -0.1592 -7.1250 0.0000 -0.0000 -76.9133 71.6506 -57.4449 0.0000 -0.0000 0.0000 -8.8468 -11.1785 22.2065 -12.2222 20.1371 -2.1782 0.0000 -0.0000 -21.7938 -16.7769 12.2018 -3.6459 7.1250 -0.0000 -0.0000 7.2622 -17.3155 4.8106
0.00 0.00 0.00 5.1363 -26.6065 12.9598 0.0000 0.0000 0.0000 -20.3267 -24.4083 -26.7931 4.5734 12.8867 38.9458 1.2124 6.5015 -24.0873 0.0075 -0.5574 -1.5318 0.0000 0.0000 0.0000 14.1416 22.4763 -37.8723 -5.9973 -14.4258 44.9710 -0.1864 -13.5076 -21.2499 -0.0064 0.5165 -1.4192 -0.8242 -0.5076 7.7842 -5.1056 -1.4312 -7.3087 -4.8688 -0.9355 -12.4708 -7.0601 4.4500 7.1119 20.8101 3.6812 13.3792 7.6324 1.9673 2.0293 -0.0000 -0.0000 0.0000 -7.4245 5.4295 -41.8494 12.0763 -19.9190 -2.1282 -0.0000 -0.0000 5.8414 -3.6446 61.1915 -3.1946 -7.1250 0.0000 -0.0000 -97.7066 70.9166 -78.1218 -0.0000 -0.0000 0.0000 -20.7434 -8.9852 47.8111 -12.3645 20.3490 -2.2274 0.0000 -0.0000 -18.6614 -9.7090 21.1091 -3.5260 7.1250 -0.0000 -0.0000 12.0086 -8.9633 10.2242
0.00 0.00 0.00 3.1400 -27.5504 12.9132 0.0000 0.0000 0.0000 -17.1159 -23.8211 -23.3135 3.6113 11.6243 34.4156 1.0343 7.7566 -23.4999 0.0001 -0.0513 -0.1408 0.0000 0.0000 0.0000 18.5227 23.9981 -31.9867 -4.2419 -12.4755 37.4355 0.1343 -13.9346 -18.1734 -0.0063 -0.5133 1.4105 -0.4171 1.2426 6.1547 -9.3466 0.8726 -4.1595 -9.9996 0.1087 -7.7758 -6.4505 0.1613 -1.5143 29.9609 -2.3299 9.4141 10.7988 -0.4132 3.3618 0.0000 -0.0000 0.0000 -4.5563 -9.9886 -74.2660 10.5657 -17.6195 -1.6420 -0.0000 -0.0000 0.7952 -9.9944 62.1385 -8.8554 -7.1250 0.0000 -0.0000 -79.4593 -68.8975 100.9590 0.0000 -0.0000 0.0000 -15.8809 -7.8544 77.4965 -9.8182 16.4546 -1.4230 0.0000 0.0000 11.7066 -14.1122 18.2325 -4.4976 7.1250 -0.0000 -0.0000 9.1369 -11.4009 7.2456
0.00 0.00 0.00 2.5219 -21.6946 11.2764 0.0000 0.0000 0.0000 -17.2863 -24.6732 -22.5814 3.2933 11.1554 32.8057 0.9036 4.1680 -19.9290 0.0045 -0.4338 -1.1919 0.0000 0.0000 0.0000 18.6346 21.6499 -29.5481 -3.6732 -11.7123 34.7218 0.6757 -17.6290 -17.4769 -0.0077 -0.5655 1.5540 -0.8546 -3.4648 10.1077 2.3919 -4.7425 7.7766 3.3068 -2.5089 2.7398 -4.6543 1.4548 -9.1259 4.7173 2.4640 -9.0306 2.3444 1.3021 -1.4364 -0.0000 -0.0000 0.0000 -23.8756 18.0500 -8.0878 10.1681 -17.0021 -1.5237 -0.0000 -0.0000 19.8726 -25.4233 56.6008 -21.6449 -7.1250 0.0000 -0.0000 -93.7591 63.7635 -64.7478 -0.0000 -0.0000 0.0000 -2.0940 -7.6141 -12.0451 -14.8462 23.9315 -3.1633 0.0000 -0.0000 -63.1510 -10.4343 -1.7937 0.3303 7.1250 -0.0000 -0.0000 12.8807 -31.6322 4.3075
0.00 0.00 0.00 1.8182 -22.1066 12.5478 0.0000 0.0000 0.0000 -17.8745 -25.0676 -22.8053 3.4168 11.3410 33.4387 1.0526 4.2989 -21.3813 0.0523 1.4764 4.0608 0.0000 0.0000 0.0000 17.8163 22.6339 -28.9758 -3.5418 -11.5244 34.0695 0.7157 -18.1273 -17.9822 -0.0058 -0.4902 1.3470 0.0749 -3.2915 7.2893 7.8331 -4.3380 2.9962 8.5060 -2.2743 -0.3474 -7.8296 -0.0540 3.6028 -0.6044 -0.6226 -6.3253 1.1835 -0.1135 -2.6351 0.0000 -0.0000 0.0000 -16.4212 18.8235 29.4499 9.8762 -16.5457 -1.4395 -0.0000 -0.0000 43.0583 -6.6566 55.4610 -5.4913 -7.1250 0.0000 -0.0000 -82.5666 69.6452 -60.5187 0.0000 -0.0000 0.0000 0.1098 0.3909 -33.0595 -15.5834 24.9525 -3.4683 0.0000 -0.0000 -68.4381 -32.3501 1.0236 -0.6483 7.1250 -0.0000 -0.0000 -4.4991 -28.7564 -1.7848
0.00 0.00 0.00 1.9829 -34.8845 18.3357 0.0000 0.0000 0.0000 -18.5778 -18.6479 -24.1394 3.3400 11.2260 33.0460 1.0017 7.2441 -22.8491 0.7000 -5.3481 -14.9042 0.0000 0.0000 0.0000 16.4785 27.2146 -31.4986 -3.7756 -11.8557 35.2235 -0.0647 -11.7092 -17.5246 -0.2638 3.3045 -9.1276 -1.0821 -1.9173 4.4945 0.6990 -2.8227 -10.8591 1.8637 -1.2353 -14.3309 -4.8483 1.5525 -1.3832 8.8382 1.6393 7.2393 3.8458 0.9144 2.4747 -0.0000 -0.0000 0.0000 -35.4337 9.9755 -31.7312 75.2120 -59.1574 -47.2295 -0.0000 -0.0000 60.6862 -74.0933 32.2148 -61.8717 -7.1250 0.0000 -0.0000 -79.2293 46.6326 -9.2989 -0.0000 -0.0000 0.0000 23.4311 -2.1713 -21.3149 -47.8040 52.0705 -24.4310 0.0000 0.0000 11.6342 67.0565 -5.0394 -11.7229 7.1250 -0.0000 -0.0000 43.7939 9.8105 78.0872
0.00 0.00 0.00 1.9492 -36.0441 16.7601 0.0000 0.0000 0.0000 -20.1290 -16.8963 -22.1501 3.4285 11.3583 33.4982 1.0595 7.3626 -23.4241 0.7991 -5.7056 -15.9325 0.0000 0.0000 0.0000 16.9420 26.6270 -29.6546 -3.9848 -12.1402 36.2297 -0.2381 -10.9773 -18.7255 -0.3979 4.0498 -11.2169 -1.1142 -1.7807 1.3804 0.8143 -2.6624 -12.1795 1.8925 -1.1836 -13.9497 -4.5603 1.5126 -2.2410 8.8378 1.0197 15.3004 3.5548 0.7178 4.8445 -0.0000 0.0000 0.0000 -40.7339 5.0513 -32.8176 96.0874 -59.8595 -65.2693 -0.0000 -0.0000 62.9031 -71.2325 34.7539 -59.2018 -7.1250 0.0000 -0.0000 -84.8476 47.9472 -19.5040 -0.0000 0.0000 0.0000 28.7727 6.3812 -28.8952 -69.3631 58.3280 -42.2283 0.0000 0.0000 18.1243 64.8659 -3.4068 -7.2187 7.1250 -0.0000 -0.0000 43.6040 8.0977 76.7971
